<?xml version="1.0" encoding="UTF-8"?>
<svg id="logo" xmlns="http://www.w3.org/2000/svg" width="105.12" height="35.28" viewBox="0 0 105.12 35.28">
  <path d="M2.84,7.69c.29,.47,.43,.84,.43,1.12s-.07,.52-.2,.74c-.13,.22-.31,.32-.52,.32-.41,0-.74-.35-1.01-1.04-.26-.7-.4-1.43-.4-2.2,0-1.15,.43-2.18,1.28-3.1,.85-.91,1.94-1.37,3.26-1.37,.89,0,1.55,.43,2,1.28,.44,.85,.67,1.82,.67,2.9s-.03,2.09-.09,3.04c-.06,.95-.11,1.68-.16,2.2-.05,.52-.14,1.33-.29,2.45-.14,1.12-.24,1.89-.29,2.32,1.92,0,3.94-.97,6.05-2.92,.29-3.46,.69-6.16,1.21-8.12,.52-1.96,1.04-3.33,1.57-4.12,.53-.79,1.1-1.19,1.71-1.19s1.12,.28,1.51,.83c.4,.55,.59,1.21,.59,1.98,0,2.83-1.26,5.89-3.78,9.18-.14,1.9-.22,3.64-.22,5.24s.23,3.14,.7,4.64c.47,1.5,.7,2.34,.7,2.52s-.13,.32-.4,.43-.55,.16-.86,.16c-.84,0-1.52-.22-2.05-.65-.26-.22-.48-.95-.65-2.2-.17-1.25-.25-2.42-.25-3.51s.04-2.27,.11-3.55c-2.14,1.82-4.16,2.77-6.08,2.84-.02,.34-.05,.89-.07,1.67-.02,.78-.06,1.36-.11,1.73-.05,.37-.14,.8-.29,1.28-.24,.89-.82,1.33-1.73,1.33-.55,0-.83-.47-.83-1.42s.14-2.6,.43-4.95c-1.08-.46-1.62-1.26-1.62-2.41,0-.84,.22-1.55,.65-2.14,.43-.59,.96-.88,1.58-.88,.22-2.21,.32-3.91,.32-5.11,0-2.16-.34-3.24-1.01-3.24-1.54,0-2.3,.78-2.3,2.34,0,.58,.14,1.1,.43,1.57Zm2.45,5.6c-.34,.24-.5,.56-.5,.97s.1,.74,.29,1.01l.22-1.98ZM19.01,3.42c0-.36-.05-.69-.16-.99-.11-.3-.25-.45-.41-.45-.67,0-1.28,2.6-1.84,7.81,1.61-2.45,2.41-4.57,2.41-6.37Z" fill="#231f20"/>
  <path d="M22.18,23.94c-.94,0-1.64-.19-2.12-.58-.17-.17-.25-.77-.25-1.8s.08-2.75,.23-5.17c.16-2.41,.29-3.71,.41-3.91,.12-.19,.49-.55,1.12-1.08,.62-.53,1.11-.79,1.46-.79s.52,.46,.52,1.37c0,.24-.07,.71-.2,1.4-.13,.7-.28,1.2-.45,1.51-.31,.79-.47,2.87-.47,6.23,0,.65,.07,.97,.22,.97,.41-.02,.97-.53,1.69-1.53,.72-1,1.43-2.27,2.14-3.83,.71-1.56,1.14-2.34,1.3-2.34s.23,.1,.23,.29c0,.67-.35,1.74-1.04,3.2-1.9,4.03-3.49,6.05-4.79,6.05Zm-1.04-17.78c0-.43,.23-.8,.68-1.12,.46-.31,.86-.47,1.22-.47,.65,0,.97,.37,.97,1.12s-.19,1.39-.58,1.93c-.38,.54-.92,.81-1.62,.81-.46,0-.68-.76-.68-2.27Z" fill="#231f20"/>
  <path d="M27.22,12.56c.26-.31,.68-.71,1.26-1.21,.58-.49,1.03-.74,1.37-.74s.5,.47,.5,1.42-.25,1.88-.76,2.79c-.1,.43-.17,1.06-.22,1.87,.7-1.9,1.39-3.32,2.09-4.28,.7-.96,1.54-1.44,2.54-1.44s1.87,.45,2.61,1.35c.74,.9,1.12,2.32,1.12,4.25s-.55,3.64-1.64,5.13c-1.09,1.49-2.53,2.23-4.3,2.23-.91,0-1.84-.34-2.77-1.01,0,4.58-.26,8.08-.79,10.48-.05,.22-.37,.58-.95,1.1-.59,.52-1.02,.77-1.3,.77s-.47-.19-.59-.58c-.12-.38-.18-.74-.18-1.08,0-2.47,.5-5.65,1.51-9.54,.17-2.26,.28-4.73,.34-7.42,.06-2.69,.11-4.06,.16-4.1Zm4.79,10.08c.7,0,1.42-.49,2.16-1.46,.74-.97,1.12-2.17,1.12-3.6s-.2-2.57-.59-3.42c-.4-.85-.93-1.28-1.6-1.28-1.15,0-2.46,2.39-3.92,7.16-.05,.67-.07,1.2-.07,1.58,.67,.67,1.64,1.01,2.92,1.01Z" fill="#231f20"/>
  <path d="M44.39,12.74l.07-.54c0-.43-.25-.65-.74-.65s-.97,.32-1.42,.95c-.46,.64-.68,1.16-.68,1.57s.02,.73,.07,.97c.05,.24,.1,.44,.16,.59,.06,.16,.16,.34,.31,.56s.25,.37,.32,.47l.4,.5c.17,.24,.29,.4,.36,.47,1.25-1.03,2.74-2.18,4.46-3.46,.1-.07,.2-.11,.32-.11,.24,0,.36,.13,.36,.4s-.11,.47-.32,.61c-1.54,.98-2.99,2.05-4.36,3.2,.53,.77,.79,1.61,.79,2.52s-.35,1.69-1.04,2.34c-.7,.65-1.58,.97-2.66,.97s-1.62-.52-1.62-1.55c0-.74,.79-1.88,2.38-3.42-.12-.14-.34-.38-.65-.7-.31-.32-.55-.58-.7-.77-.16-.19-.34-.44-.56-.76-.38-.6-.58-1.25-.58-1.94,0-1.42,.46-2.56,1.37-3.44,.91-.88,1.88-1.31,2.92-1.31,.65,0,1.15,.17,1.51,.52,.36,.35,.54,.7,.54,1.06,0,.82-.19,1.22-.58,1.22-.29,0-.43-.1-.43-.29Zm-2.3,7.09c-.96,.96-1.44,1.73-1.44,2.32s.3,.88,.9,.88c.36,0,.66-.14,.9-.43,.53-.72,.41-1.64-.36-2.77Z" fill="#231f20"/>
  <path d="M54.61,17.89c-1.9,4.03-3.5,6.05-4.81,6.05s-2.08-.16-2.3-.47c-.23-.31-.34-1.34-.34-3.1s.17-4.28,.5-7.6c-1.2-.24-1.84-.73-1.91-1.48,0-.38,.25-.58,.76-.58s.95,.1,1.33,.29c.22-1.73,.47-3.48,.76-5.26,.07-.46,.3-.89,.68-1.3,.38-.41,.76-.61,1.12-.61,.31,0,.47,.49,.47,1.48,0,.46-.17,2.56-.5,6.3,.65-.12,1.36-.36,2.14-.72,.78-.36,1.24-.54,1.39-.54,.43,0,.65,.13,.65,.4,.02,.24-.42,.57-1.33,.99-.91,.42-1.9,.74-2.95,.95-.29,3.5-.43,6.16-.43,7.96,0,.96,.14,1.44,.43,1.44,.43-.02,1.01-.53,1.73-1.51,.72-.98,1.43-2.26,2.14-3.83,.71-1.57,1.14-2.36,1.3-2.36s.23,.1,.23,.29c0,.67-.35,1.74-1.04,3.2Z" fill="#231f20"/>
  <path d="M56.16,23.94c-.94,0-1.64-.19-2.12-.58-.17-.17-.25-.77-.25-1.8s.08-2.75,.23-5.17c.16-2.41,.29-3.71,.41-3.91,.12-.19,.49-.55,1.12-1.08,.62-.53,1.11-.79,1.46-.79s.52,.46,.52,1.37c0,.24-.07,.71-.2,1.4-.13,.7-.28,1.2-.45,1.51-.31,.79-.47,2.87-.47,6.23,0,.65,.07,.97,.22,.97,.41-.02,.97-.53,1.69-1.53,.72-1,1.43-2.27,2.14-3.83,.71-1.56,1.14-2.34,1.3-2.34s.23,.1,.23,.29c0,.67-.35,1.74-1.04,3.2-1.9,4.03-3.49,6.05-4.79,6.05Zm-1.04-17.78c0-.43,.23-.8,.68-1.12,.46-.31,.86-.47,1.22-.47,.65,0,.97,.37,.97,1.12s-.19,1.39-.58,1.93c-.38,.54-.92,.81-1.62,.81-.46,0-.68-.76-.68-2.27Z" fill="#231f20"/>
  <path d="M63.21,14.36l1.98-.22c.19,0,.36,.11,.5,.32,.14,.22,.22,.44,.22,.68s-.08,1.06-.23,2.45c-.16,1.39-.23,2.49-.23,3.29s.07,1.21,.22,1.21c.41-.02,.97-.53,1.69-1.53,.72-1,1.43-2.27,2.14-3.83,.71-1.56,1.14-2.34,1.3-2.34s.23,.1,.23,.29c0,.67-.35,1.74-1.04,3.2-1.9,4.03-3.49,6.05-4.79,6.05-.94,0-1.64-.19-2.12-.58-.17-.17-.25-1.21-.25-3.13s.2-3.56,.61-4.93c-1.39,0-2.36-.44-2.92-1.33-.29-.46-.43-.97-.43-1.55s.12-1.08,.36-1.51c.24-.43,.58-.65,1.03-.65s.85,.23,1.22,.7c.37,.47,.56,.99,.56,1.57s-.17,1.15-.5,1.73c.1,.07,.25,.11,.47,.11Z" fill="#231f20"/>
  <path d="M72.39,14.36l1.98-.22c.19,0,.36,.11,.5,.32,.14,.22,.22,.44,.22,.68s-.08,1.06-.23,2.45c-.16,1.39-.23,2.49-.23,3.29s.07,1.21,.22,1.21c.41-.02,.97-.53,1.69-1.53,.72-1,1.43-2.27,2.14-3.83,.71-1.56,1.14-2.34,1.3-2.34s.23,.1,.23,.29c0,.67-.35,1.74-1.04,3.2-1.9,4.03-3.49,6.05-4.79,6.05-.94,0-1.64-.19-2.12-.58-.17-.17-.25-1.21-.25-3.13s.2-3.56,.61-4.93c-1.39,0-2.36-.44-2.92-1.33-.29-.46-.43-.97-.43-1.55s.12-1.08,.36-1.51c.24-.43,.58-.65,1.03-.65s.85,.23,1.22,.7c.37,.47,.56,.99,.56,1.57s-.17,1.15-.5,1.73c.1,.07,.25,.11,.47,.11Z" fill="#231f20"/>
  <path d="M82.83,23.94c-1.34,0-2.41-.51-3.2-1.53-.79-1.02-1.19-2.18-1.19-3.47,0-2.62,.55-4.6,1.66-5.94,1.1-1.34,2.53-2.02,4.28-2.02,.82,0,1.49,.22,2.02,.67,.53,.44,.79,1.05,.79,1.82,0,1.44-.61,2.65-1.82,3.62-1.21,.97-2.69,1.48-4.45,1.53,.1,.94,.41,1.75,.95,2.43,.54,.68,1.17,1.03,1.89,1.03s1.37-.17,1.94-.5,1.1-.82,1.58-1.44c1.01-1.32,1.87-2.82,2.59-4.5,.19-.43,.34-.74,.45-.94,.11-.19,.23-.29,.36-.29s.2,.1,.2,.29c0,1.2-.73,3-2.2,5.4-1.58,2.57-3.54,3.85-5.87,3.85Zm-1.91-6.19c1.42-.24,2.45-.7,3.11-1.37,.66-.67,.99-1.55,.99-2.63s-.35-1.62-1.04-1.62c-.84,0-1.55,.58-2.12,1.75-.58,1.16-.89,2.45-.94,3.87Z" fill="#231f20"/>
  <path d="M99.25,23.94c-.82,0-1.45-.18-1.91-.54-.19-.19-.29-.7-.29-1.51s.04-1.88,.11-3.2c-.65,1.73-1.31,3.04-1.98,3.92-.67,.89-1.52,1.33-2.54,1.33s-1.88-.44-2.59-1.33c-.71-.89-1.06-2.3-1.06-4.25s.55-3.66,1.64-5.15c1.09-1.49,2.53-2.23,4.3-2.23,.86,0,1.76,.34,2.7,1.01,.38-4.68,.73-7.32,1.04-7.92,.14-.26,.49-.65,1.03-1.15,.54-.5,.99-.76,1.35-.76s.54,.56,.54,1.69c0,1.32-.12,2.46-.36,3.42-.65,2.47-1.06,4.04-1.22,4.72-.34,2.59-.5,5.64-.5,9.14,0,.65,.07,.97,.22,.97,.43-.02,1.01-.53,1.73-1.51,.72-.98,1.43-2.26,2.14-3.83,.71-1.57,1.14-2.36,1.3-2.36s.23,.1,.23,.29c0,.67-.35,1.74-1.04,3.2-1.9,4.03-3.5,6.05-4.82,6.05Zm-4.54-11.66c-.65,0-1.3,.52-1.94,1.55-.65,1.03-.97,2.23-.97,3.58s.17,2.47,.52,3.33c.35,.86,.79,1.3,1.31,1.3,1.08,0,2.32-2.16,3.71-6.48,.12-1.32,.18-2.1,.18-2.34-.7-.62-1.63-.94-2.81-.94Z" fill="#231f20"/>
</svg>